<svg width="512" height="512" viewBox="0 0 512 512" fill="none" xmlns="http://www.w3.org/2000/svg">
<path d="M256 0C114.842 0 0 114.842 0 256C0 397.158 114.842 512 256 512C397.158 512 512 397.158 512 256C512 114.842 397.158 0 256 0ZM256 465.455C140.507 465.455 46.545 371.494 46.545 256C46.545 140.506 140.507 46.545 256 46.545C371.493 46.545 465.455 140.507 465.455 256C465.455 371.493 371.493 465.455 256 465.455Z" fill="white"/>
<path d="M318.061 139.636C305.208 139.636 294.788 150.056 294.788 162.909V349.091C294.788 361.944 305.208 372.364 318.061 372.364C330.914 372.364 341.334 361.944 341.334 349.091V162.909C341.333 150.056 330.913 139.636 318.061 139.636Z" fill="white"/>
<path d="M193.939 139.636C181.086 139.636 170.666 150.056 170.666 162.909V349.091C170.666 361.944 181.086 372.364 193.939 372.364C206.792 372.364 217.212 361.944 217.212 349.091V162.909C217.212 150.056 206.792 139.636 193.939 139.636Z" fill="white"/>
</svg>
