<svg width="415" height="373" viewBox="0 0 415 373" fill="none" xmlns="http://www.w3.org/2000/svg">
<path d="M124.667 82.9583L0.416748 165.792V0.125L124.667 82.9583ZM21.1251 238.271H393.875C399.367 238.271 404.635 236.089 408.518 232.206C412.402 228.322 414.583 223.055 414.583 217.563C414.583 212.07 412.402 206.803 408.518 202.92C404.635 199.036 399.367 196.854 393.875 196.854H21.1251C15.6329 196.854 10.3656 199.036 6.48208 202.92C2.59851 206.803 0.416748 212.07 0.416748 217.563C0.416748 223.055 2.59851 228.322 6.48208 232.206C10.3656 236.089 15.6329 238.271 21.1251 238.271V238.271ZM166.083 82.9583C166.083 88.4505 168.265 93.7178 172.149 97.6013C176.032 101.485 181.3 103.667 186.792 103.667H393.875C399.367 103.667 404.635 101.485 408.518 97.6013C412.402 93.7178 414.583 88.4505 414.583 82.9583C414.583 77.4661 412.402 72.1989 408.518 68.3153C404.635 64.4318 399.367 62.25 393.875 62.25H186.792C181.3 62.25 176.032 64.4318 172.149 68.3153C168.265 72.1989 166.083 77.4661 166.083 82.9583ZM21.1251 372.875H393.875C399.367 372.875 404.635 370.693 408.518 366.81C412.402 362.926 414.583 357.659 414.583 352.167C414.583 346.674 412.402 341.407 408.518 337.524C404.635 333.64 399.367 331.458 393.875 331.458H21.1251C15.6329 331.458 10.3656 333.64 6.48208 337.524C2.59851 341.407 0.416748 346.674 0.416748 352.167C0.416748 357.659 2.59851 362.926 6.48208 366.81C10.3656 370.693 15.6329 372.875 21.1251 372.875V372.875Z" fill="white"/>
</svg>
