<svg width="427" height="427" viewBox="0 0 427 427" fill="none" xmlns="http://www.w3.org/2000/svg">
<path d="M170.667 309.333L298.667 213.333L170.667 117.333V309.333Z" fill="white"/>
<path d="M213.333 0C95.467 0 0 95.467 0 213.333C0 331.199 95.467 426.666 213.333 426.666C331.199 426.666 426.667 331.2 426.667 213.333C426.667 95.466 331.2 0 213.333 0ZM213.333 384C119.253 384 42.666 307.413 42.666 213.333C42.666 119.253 119.253 42.667 213.333 42.667C307.413 42.667 384 119.253 384 213.333C384 307.413 307.413 384 213.333 384Z" fill="white"/>
</svg>
