<svg width="512" height="457" viewBox="0 0 512 457" fill="none" xmlns="http://www.w3.org/2000/svg">
<path d="M234.693 242.679C243.447 221.934 250.868 205.66 256.959 193.859C261.527 185.105 265.813 177.729 269.81 171.733C273.803 165.737 278.66 159.884 284.368 154.175C290.083 148.464 296.646 144.177 304.073 141.325C311.492 138.47 319.77 137.042 328.911 137.042H401.995V191.86C401.995 194.334 402.898 196.477 404.705 198.283C406.512 200.092 408.654 200.995 411.125 200.995C413.794 200.995 415.984 200.141 417.688 198.427L509.053 107.068C510.771 105.353 511.626 103.167 511.626 100.501C511.626 97.835 510.771 95.648 509.053 93.927L417.976 2.849C415.697 0.947001 413.404 0 411.124 0C408.455 0 406.271 0.855002 404.554 2.57C402.85 4.283 401.994 6.47 401.994 9.135V63.949H328.91C315.964 63.949 303.784 65.523 292.361 68.663C280.938 71.803 270.801 75.798 261.952 80.654C253.1 85.508 244.536 92.026 236.255 100.212C227.975 108.394 220.931 116.296 215.129 123.909C209.325 131.52 203.232 141.036 196.857 152.458C190.483 163.878 185.343 173.872 181.441 182.436C177.538 191.002 172.828 201.566 167.309 214.129C158.552 234.875 151.129 251.151 145.039 262.951C140.472 271.705 136.186 279.083 132.192 285.078C128.196 291.074 123.339 296.926 117.63 302.635C111.919 308.35 105.352 312.634 97.929 315.489C90.508 318.343 82.226 319.773 73.091 319.773H9.13903C6.47303 319.773 4.28303 320.622 2.57203 322.339C0.863028 324.05 0.00402832 326.234 0.00402832 328.902V383.725C0.00402832 386.388 0.866028 388.578 2.57903 390.295C4.29303 392.007 6.48403 392.862 9.14603 392.862H73.1C86.046 392.862 98.225 391.288 109.647 388.146C121.067 385.004 131.205 381.007 140.053 376.155C148.906 371.299 157.47 364.779 165.75 356.593C174.028 348.414 181.074 340.509 186.878 332.899C192.68 325.284 198.772 315.77 205.149 304.351C211.523 292.927 216.665 282.935 220.565 274.372C224.464 265.806 229.173 255.245 234.693 242.679Z" fill="white"/>
<path d="M9.135 137.039H73.089C81.464 137.039 89.219 138.42 96.358 141.182C103.497 143.944 109.492 147.273 114.345 151.177C119.199 155.081 124.052 160.456 128.906 167.307C133.759 174.162 137.614 180.207 140.469 185.438C143.322 190.674 146.843 197.575 151.031 206.139C165.69 171.688 178.725 145.707 190.146 128.196C159.692 85.3711 120.673 63.9551 73.088 63.9551H9.135C6.469 63.9551 4.279 64.8101 2.568 66.5251C0.859 68.2361 0 70.4231 0 73.0891V127.907C0 130.574 0.855 132.758 2.568 134.47C4.283 136.185 6.473 137.039 9.135 137.039Z" fill="white"/>
<path d="M417.983 258.674C415.697 256.772 413.411 255.827 411.125 255.827C408.463 255.827 406.272 256.679 404.562 258.393C402.851 260.104 401.996 262.294 401.996 264.956V319.779H328.905C320.527 319.779 312.773 318.396 305.634 315.632C298.495 312.873 292.499 309.544 287.647 305.639C282.798 301.738 277.942 296.359 273.089 289.504C268.233 282.652 264.376 276.606 261.522 271.369C258.67 266.143 255.149 259.234 250.961 250.676C236.306 284.935 223.365 310.916 212.133 328.619C217.27 336.041 222.6 342.656 228.12 348.457C233.638 354.261 238.874 359.353 243.822 363.733C248.771 368.107 254.386 371.919 260.666 375.149C266.949 378.386 272.466 381.097 277.229 383.288C282 385.477 287.989 387.237 295.219 388.571C302.45 389.899 308.541 390.905 313.49 391.562C318.438 392.226 325.197 392.705 333.762 392.993C342.324 393.28 349.272 393.369 354.596 393.28C359.931 393.184 367.641 393.082 377.73 392.993C387.819 392.9 395.909 392.849 402.001 392.849V447.668C402.001 450.142 402.904 452.284 404.711 454.091C406.518 455.899 408.66 456.802 411.131 456.802C413.8 456.802 415.99 455.947 417.694 454.236L509.059 362.878C510.77 361.16 511.625 358.977 511.625 356.308C511.625 353.642 510.77 351.455 509.052 349.745L417.983 258.674Z" fill="white"/>
</svg>
