<svg width="466" height="512" viewBox="0 0 466 512" fill="none" xmlns="http://www.w3.org/2000/svg">
<path d="M442.182 279.263C429.312 279.263 418.909 289.689 418.909 302.536C418.909 341.029 387.584 372.354 349.091 372.354H162.909V302.536C162.909 293.599 157.766 285.431 149.737 281.567C141.615 277.704 132.096 278.774 125.091 284.36L8.727 377.451C3.211 381.873 0 388.552 0 395.627C0 402.702 3.212 409.381 8.727 413.803L125.091 506.894C129.303 510.245 134.447 511.991 139.636 511.991C143.057 511.991 146.525 511.223 149.736 509.687C157.765 505.824 162.908 497.655 162.908 488.718V418.9H349.09C413.253 418.9 465.454 366.699 465.454 302.536C465.455 289.689 455.052 279.263 442.182 279.263Z" fill="#1DB954"/>
<path d="M23.273 232.718C36.143 232.718 46.546 222.292 46.546 209.445C46.546 170.952 77.871 139.627 116.364 139.627H302.546V209.445C302.546 218.382 307.689 226.55 315.718 230.414C318.953 231.95 322.397 232.718 325.818 232.718C331.008 232.718 336.151 230.973 340.363 227.621L456.727 134.53C462.243 130.108 465.454 123.429 465.454 116.354C465.454 109.279 462.242 102.6 456.727 98.1782L340.364 5.08721C333.382 -0.497795 323.747 -1.56879 315.718 2.29421C307.689 6.15721 302.546 14.3262 302.546 23.2632V93.0812H116.364C52.201 93.0812 0 145.282 0 209.445C0 222.292 10.403 232.718 23.273 232.718Z" fill="#1DB954"/>
</svg>
