<svg width="594" height="600" viewBox="0 0 594 600" fill="none" xmlns="http://www.w3.org/2000/svg">
<path d="M27 450.005H125.226L279.72 593.07C284.574 597.553 290.688 600.005 297 600C300.959 600.005 304.869 599.031 308.448 597.15C313.094 594.734 317.024 590.897 319.778 586.089C322.532 581.281 323.997 575.7 324 570.001V30.0178C324.003 24.315 322.543 18.7294 319.792 13.9155C317.04 9.10155 313.11 5.25886 308.463 2.83775C303.816 0.416648 298.644 -0.482566 293.553 0.245505C288.462 0.973577 283.664 3.29876 279.72 6.94856L125.226 150.014H27C19.8392 150.014 12.9716 153.175 7.90812 158.801C2.84463 164.427 0 172.057 0 180.013V420.006C0 427.962 2.84463 435.592 7.90812 441.218C12.9716 446.844 19.8392 450.005 27 450.005ZM54 210.012H135C141.312 210.017 147.426 207.566 152.28 203.082L270 94.0658V505.953L152.28 396.936C147.426 392.453 141.312 390.001 135 390.007H54V210.012ZM594 300.009C593.943 355.684 574.012 409.059 538.58 448.427C503.148 487.795 455.108 509.939 405 510.003C397.839 510.003 390.972 506.842 385.908 501.216C380.845 495.59 378 487.96 378 480.004C378 472.048 380.845 464.417 385.908 458.791C390.972 453.165 397.839 450.005 405 450.005C440.804 450.005 475.142 434.202 500.459 406.072C525.777 377.943 540 339.791 540 300.009C540 260.228 525.777 222.076 500.459 193.947C475.142 165.817 440.804 150.014 405 150.014C397.839 150.014 390.972 146.853 385.908 141.228C380.845 135.602 378 127.971 378 120.015C378 112.059 380.845 104.428 385.908 98.8025C390.972 93.1766 397.839 90.016 405 90.016C455.108 90.0795 503.148 112.224 538.58 151.592C574.012 190.959 593.943 244.335 594 300.009V300.009ZM459 300.009C459 284.097 453.311 268.836 443.184 257.584C433.057 246.332 419.322 240.011 405 240.011C397.839 240.011 390.972 236.851 385.908 231.225C380.845 225.599 378 217.968 378 210.012C378 202.056 380.845 194.426 385.908 188.8C390.972 183.174 397.839 180.013 405 180.013C433.643 180.013 461.114 192.656 481.368 215.159C501.621 237.663 513 268.184 513 300.009C513 331.834 501.621 362.356 481.368 384.86C461.114 407.363 433.643 420.006 405 420.006C397.839 420.006 390.972 416.845 385.908 411.219C380.845 405.593 378 397.963 378 390.007C378 382.05 380.845 374.42 385.908 368.794C390.972 363.168 397.839 360.008 405 360.008C419.322 360.008 433.057 353.686 443.184 342.434C453.311 331.183 459 315.922 459 300.009Z" fill="white"/>
</svg>
