<svg width="512" height="416" viewBox="0 0 512 416" fill="none" xmlns="http://www.w3.org/2000/svg">
<path d="M480 64H416V32C416 14.344 401.688 0 384 0H32C14.313 0 0 14.344 0 32V288C0 305.688 14.313 320 32 320H176L144 384H272L240 320H352V384C352 401.688 366.312 416 384 416H480C497.688 416 512 401.688 512 384V96C512 78.344 497.688 64 480 64ZM32 256V32H384V64C366.312 64 352 78.344 352 96V256H32ZM432 384C423.156 384 416 376.844 416 368C416 359.156 423.156 352 432 352C440.844 352 448 359.156 448 368C448 376.844 440.844 384 432 384ZM432 320C423.156 320 416 312.844 416 304C416 295.156 423.156 288 432 288C440.844 288 448 295.156 448 304C448 312.844 440.844 320 432 320ZM480 192H416H384V160H480V192ZM480 128H384V96H480V128Z" fill="white"/>
</svg>
