<svg width="612" height="612" viewBox="0 0 612 612" fill="none" xmlns="http://www.w3.org/2000/svg">
<path d="M403.939 295.749L325.125 374.582V172.125C325.125 161.568 316.557 153 306 153C295.443 153 286.875 161.568 286.875 172.125V374.582L208.061 295.768C200.583 288.29 188.477 288.29 181.018 295.768C173.54 303.246 173.54 315.352 181.018 322.81L289.208 431C293.798 435.59 300.071 437.005 306.02 435.953C311.949 437.005 318.241 435.571 322.831 431L431.021 322.81C438.499 315.332 438.499 303.227 431.021 295.768C423.523 288.29 411.417 288.29 403.939 295.749ZM306 0C137.012 0 0 136.992 0 306C0 475.008 137.012 612 306 612C474.988 612 612 474.988 612 306C612 137.012 475.008 0 306 0ZM306 573.75C158.125 573.75 38.25 453.875 38.25 306C38.25 158.125 158.125 38.25 306 38.25C453.875 38.25 573.75 158.125 573.75 306C573.75 453.875 453.875 573.75 306 573.75Z" fill="white"/>
</svg>
