<svg width="32" height="32" viewBox="0 0 32 32" fill="none" xmlns="http://www.w3.org/2000/svg">
<g filter="url(#filter0_i)">
<rect width="32" height="32" fill="#451AD5"/>
</g>
<path d="M21.8894 9.46794C21.1647 8.52134 20.1702 8 19.0891 8C18.281 8 17.5409 8.30769 16.8893 8.91444C16.5605 9.22071 16.2626 9.59542 16 10.0328C15.7375 9.59555 15.4395 9.22071 15.1106 8.91444C14.4591 8.30769 13.719 8 12.9109 8C11.8298 8 10.8352 8.52134 10.1105 9.46794C9.39445 10.4035 9 11.6816 9 13.0669C9 14.4928 9.44124 15.798 10.3885 17.1747C11.236 18.406 12.454 19.6561 13.8644 21.1036C14.346 21.5979 14.8919 22.1582 15.4588 22.7551C15.6085 22.913 15.8007 23 16 23C16.1992 23 16.3915 22.913 16.541 22.7553C17.1078 22.1584 17.6541 21.5978 18.1359 21.1032C19.5461 19.656 20.7641 18.406 21.6116 17.1745C22.5589 15.798 23 14.4928 23 13.0668C23 11.6816 22.6055 10.4035 21.8894 9.46794Z" fill="white" fill-opacity="0.72"/>
<defs>
<filter id="filter0_i" x="-8" y="-10" width="40" height="42" filterUnits="userSpaceOnUse" color-interpolation-filters="sRGB">
<feFlood flood-opacity="0" result="BackgroundImageFix"/>
<feBlend mode="normal" in="SourceGraphic" in2="BackgroundImageFix" result="shape"/>
<feColorMatrix in="SourceAlpha" type="matrix" values="0 0 0 0 0 0 0 0 0 0 0 0 0 0 0 0 0 0 127 0" result="hardAlpha"/>
<feMorphology radius="2" operator="erode" in="SourceAlpha" result="effect1_innerShadow"/>
<feOffset dx="-8" dy="-10"/>
<feGaussianBlur stdDeviation="10"/>
<feComposite in2="hardAlpha" operator="arithmetic" k2="-1" k3="1"/>
<feColorMatrix type="matrix" values="0 0 0 0 1 0 0 0 0 1 0 0 0 0 1 0 0 0 0.8 0"/>
<feBlend mode="normal" in2="shape" result="effect1_innerShadow"/>
</filter>
</defs>
</svg>
