<svg width="532" height="476" viewBox="0 0 532 476" fill="none" xmlns="http://www.w3.org/2000/svg">
<path d="M481.383 54.5781C454.879 25.832 418.512 10 378.973 10C349.418 10 322.352 19.3438 298.523 37.7695C286.5 47.0703 275.605 58.4492 266 71.7305C256.398 58.4531 245.5 47.0703 233.473 37.7695C209.648 19.3438 182.582 10 153.027 10C113.488 10 77.1172 25.832 50.6133 54.5781C24.4258 82.9883 10 121.801 10 163.871C10 207.172 26.1367 246.809 60.7812 288.613C91.7734 326.008 136.316 363.969 187.898 407.926C205.512 422.938 225.477 439.953 246.207 458.078C251.684 462.875 258.711 465.516 266 465.516C273.285 465.516 280.316 462.875 285.785 458.086C306.516 439.957 326.492 422.934 344.113 407.914C395.688 363.965 440.23 326.008 471.223 288.609C505.867 246.809 522 207.172 522 163.867C522 121.801 507.574 82.9883 481.383 54.5781Z" stroke="white" stroke-width="20"/>
</svg>
