<svg width="612" height="612" viewBox="0 0 612 612" fill="none" xmlns="http://www.w3.org/2000/svg">
<g clip-path="url(#clip0)">
<rect x="509.992" y="138.458" width="377.649" height="398.133" transform="rotate(91.3612 509.992 138.458)" fill="white"/>
<rect x="509.992" y="138.458" width="377.649" height="398.133" transform="rotate(91.3612 509.992 138.458)" fill="white"/>
<path d="M0 306C0 475.008 136.992 612 306 612C475.008 612 612 475.008 612 306C612 136.992 474.988 0 306 0C137.012 0 0 136.992 0 306ZM392.751 142.749C400.229 150.227 400.229 162.333 392.751 169.792L256.543 306L392.731 442.189C400.21 449.667 400.21 461.773 392.731 469.232C385.253 476.71 373.147 476.71 365.689 469.232L219.249 322.792C214.659 318.202 213.244 311.929 214.276 305.98C213.224 300.051 214.659 293.759 219.249 289.169L365.689 142.729C373.167 135.29 385.273 135.29 392.751 142.749Z" fill="black"/>
</g>
<defs>
<clipPath id="clip0">
<rect width="612" height="612" fill="white" transform="translate(0 612) rotate(-90)"/>
</clipPath>
</defs>
</svg>
