<svg width="374" height="450" viewBox="0 0 374 450" fill="none" xmlns="http://www.w3.org/2000/svg">
<path d="M321.787 186.114C330.309 171.587 335.251 155.266 336.168 138.621C337.085 121.975 333.949 105.527 327.042 90.7572C320.134 75.9875 309.672 63.3598 296.598 54.0109C283.523 44.6619 268.246 38.8853 252.143 37.201C236.039 35.5167 219.614 37.9776 204.347 44.3621C189.079 50.7467 175.448 60.8545 164.681 73.7755C153.913 86.6966 146.348 102.025 142.665 118.382C138.982 134.738 139.297 151.609 143.583 167.475L55.0413 346.845C47.1506 360.332 62.0324 387.142 84.2903 400.165C106.548 413.188 137.211 413.026 145.102 399.539L258.404 233.932C271.414 230.654 283.744 224.723 294.641 216.502C305.538 208.281 314.774 197.941 321.787 186.114ZM281.558 63.0096C299.719 72.8792 313.135 89.7427 318.975 110.045C324.816 130.348 322.626 152.504 312.866 171.843L171.342 89.0382C183.419 71.0555 201.661 58.2911 222.221 53.4355C242.782 48.5799 264.055 52.0124 281.558 63.0096ZM163.451 102.524L171.342 89.0382L248.969 134.457L312.866 171.843L304.976 185.329C292.942 203.241 274.79 215.977 254.319 220.87C233.848 225.764 212.645 222.436 195.146 211.584C176.856 201.783 163.314 184.91 157.397 164.548C151.479 144.185 153.651 121.936 163.451 102.524ZM132.236 392.012C125.476 394.304 118.358 395.015 111.419 394.091C104.48 393.167 97.9023 390.632 92.181 386.679C85.8753 383.706 80.3966 379.238 76.1821 373.629C71.9676 368.02 69.1339 361.426 67.9071 354.373L151.273 185.914C159.401 202.047 171.855 215.36 187.238 224.361C202.622 233.362 220.329 237.695 238.375 236.877L132.236 392.012Z" fill="white"/>
</svg>
