<svg width="288" height="321" viewBox="0 0 288 321" fill="none" xmlns="http://www.w3.org/2000/svg">
<path d="M272 320C263.168 320 256 312.832 256 304V187.36L23.84 317.952C18.944 320.736 12.832 320.704 7.936 317.824C3.04 314.944 0 309.696 0 304L0 16C0 10.304 3.04 5.05603 7.936 2.17603C10.4 0.736025 13.216 3.05176e-05 16 3.05176e-05C18.72 3.05176e-05 21.408 0.672035 23.84 2.04803L256 132.64V16C256 7.16803 263.168 3.05176e-05 272 3.05176e-05C280.832 3.05176e-05 288 7.16803 288 16L288 304C288 312.832 280.832 320 272 320Z" fill="white"/>
</svg>
