<svg width="288" height="321" viewBox="0 0 288 321" fill="none" xmlns="http://www.w3.org/2000/svg">
<path d="M16 0.0124238C24.832 0.0124238 32 7.18042 32 16.0124V132.652L264.16 2.06042C269.056 -0.723576 275.168 -0.691576 280.064 2.18842C284.96 5.06842 288 10.3164 288 16.0124V304.012C288 309.708 284.96 314.956 280.064 317.836C277.6 319.276 274.784 320.012 272 320.012C269.28 320.012 266.592 319.34 264.16 317.964L32 187.372V304.012C32 312.844 24.832 320.012 16 320.012C7.168 320.012 0 312.844 0 304.012V16.0124C0 7.18042 7.168 0.0124238 16 0.0124238Z" fill="white"/>
</svg>
