<svg width="612" height="612" viewBox="0 0 612 612" fill="none" xmlns="http://www.w3.org/2000/svg">
<g clip-path="url(#clip0)">
<rect x="509.992" y="132.458" width="377.649" height="398.133" transform="rotate(91.3612 509.992 132.458)" fill="white"/>
<rect x="509.992" y="132.458" width="377.649" height="398.133" transform="rotate(91.3612 509.992 132.458)" fill="white"/>
<path d="M612 306C612 136.992 475.008 0 306 0C136.992 0 0 136.992 0 306C0 475.008 137.012 612 306 612C474.988 612 612 475.008 612 306ZM219.249 469.251C211.771 461.773 211.771 449.667 219.249 442.208L355.457 306L219.269 169.811C211.79 162.333 211.79 150.227 219.269 142.768C226.747 135.29 238.853 135.29 246.311 142.768L392.751 289.208C397.341 293.798 398.756 300.071 397.724 306.02C398.776 311.949 397.341 318.241 392.751 322.831L246.311 469.271C238.833 476.71 226.727 476.71 219.249 469.251Z" fill="black"/>
</g>
<defs>
<clipPath id="clip0">
<rect width="612" height="612" fill="white" transform="translate(612) rotate(90)"/>
</clipPath>
</defs>
</svg>
