<svg width="51" height="46" viewBox="0 0 51 46" fill="none" xmlns="http://www.w3.org/2000/svg">
<path d="M49.8234 4.85559L27.5234 43.4806C26.6244 45.0376 24.3764 45.0376 23.4774 43.4806L1.17737 4.85559C0.278372 3.29859 1.40237 1.35159 3.20037 1.35159L47.8004 1.35159C49.5984 1.35159 50.7224 3.29759 49.8234 4.85559Z" fill="white"/>
<path d="M27.5234 43.4806L49.8234 4.85559C49.9574 4.62259 50.0334 4.38159 50.0824 4.13959L28.5234 41.4806C27.6244 43.0376 25.3764 43.0376 24.4774 41.4806L2.17738 2.85559C1.97638 2.50659 1.88937 2.13959 1.87637 1.77759C0.938373 2.43359 0.533376 3.73859 1.17738 4.85559L23.4774 43.4806C24.3764 45.0376 26.6244 45.0376 27.5234 43.4806Z" fill="white"/>
<path d="M49.8234 4.85559L27.5234 43.4806C26.6244 45.0376 24.3764 45.0376 23.4774 43.4806L1.17737 4.85559C0.278372 3.29859 1.40237 1.35159 3.20037 1.35159L47.8004 1.35159C49.5984 1.35159 50.7224 3.29759 49.8234 4.85559Z" stroke="white" stroke-miterlimit="10"/>
</svg>
